<mxfile host="65bd71144e">
    <diagram id="C5RBs43oDa-KdzZeNtuy" name="Page-1">
        <mxGraphModel dx="1336" dy="642" grid="1" gridSize="10" guides="1" tooltips="1" connect="1" arrows="1" fold="1" page="1" pageScale="1" pageWidth="827" pageHeight="1169" background="#ffffff" math="0" shadow="0">
            <root>
                <mxCell id="WIyWlLk6GJQsqaUBKTNV-0"/>
                <mxCell id="WIyWlLk6GJQsqaUBKTNV-1" parent="WIyWlLk6GJQsqaUBKTNV-0"/>
                <mxCell id="zkfFHV4jXpPFQw0GAbJ--12" value="" style="endArrow=block;endSize=10;endFill=0;shadow=0;strokeWidth=1;rounded=0;edgeStyle=elbowEdgeStyle;elbow=vertical;" parent="WIyWlLk6GJQsqaUBKTNV-1" edge="1">
                    <mxGeometry width="160" relative="1" as="geometry">
                        <mxPoint x="200" y="360" as="sourcePoint"/>
                        <mxPoint x="410" y="258" as="targetPoint"/>
                    </mxGeometry>
                </mxCell>
                <mxCell id="zkfFHV4jXpPFQw0GAbJ--16" value="" style="endArrow=block;endSize=10;endFill=0;shadow=0;strokeWidth=1;rounded=0;edgeStyle=elbowEdgeStyle;elbow=vertical;" parent="WIyWlLk6GJQsqaUBKTNV-1" edge="1">
                    <mxGeometry width="160" relative="1" as="geometry">
                        <mxPoint x="410" y="360" as="sourcePoint"/>
                        <mxPoint x="410" y="258" as="targetPoint"/>
                    </mxGeometry>
                </mxCell>
                <mxCell id="FOTsaMho_FhAhk0ydCsP-14" value="" style="endArrow=block;endSize=10;endFill=0;shadow=0;strokeWidth=1;rounded=0;edgeStyle=elbowEdgeStyle;elbow=vertical;exitX=0.5;exitY=0;exitDx=0;exitDy=0;" parent="WIyWlLk6GJQsqaUBKTNV-1" edge="1">
                    <mxGeometry width="160" relative="1" as="geometry">
                        <mxPoint x="610" y="360" as="sourcePoint"/>
                        <mxPoint x="410" y="260" as="targetPoint"/>
                        <Array as="points">
                            <mxPoint x="449" y="308"/>
                        </Array>
                    </mxGeometry>
                </mxCell>
                <mxCell id="FOTsaMho_FhAhk0ydCsP-34" value="&lt;p style=&quot;margin:0px;margin-top:4px;text-align:center;&quot;&gt;&lt;i&gt;&amp;lt;&amp;lt;Interface&amp;gt;&amp;gt;&lt;/i&gt;&lt;/p&gt;&lt;p style=&quot;margin:0px;margin-top:4px;text-align:center;&quot;&gt;&lt;b&gt;Filter&lt;/b&gt;&lt;br&gt;&lt;/p&gt;&lt;hr size=&quot;1&quot;&gt;&lt;p style=&quot;margin:0px;margin-left:4px;&quot;&gt;+ &lt;code&gt;&lt;span class=&quot;hljs-title.function&quot;&gt;doFilter&lt;/span&gt;&lt;span class=&quot;hljs-params&quot;&gt;(String searchText, MessageList messageList)&lt;/span&gt;: &lt;/code&gt;&lt;code&gt;void&lt;/code&gt;&lt;/p&gt;&lt;p style=&quot;margin:0px;margin-left:4px;&quot;&gt;&lt;br&gt;+&lt;code&gt;&lt;span class=&quot;hljs-title.function&quot;&gt;toString&lt;/span&gt;&lt;span class=&quot;hljs-params&quot;&gt;()&lt;/span&gt;:&lt;/code&gt;&lt;code&gt;String &lt;/code&gt;&lt;/p&gt;" style="verticalAlign=top;align=left;overflow=fill;fontSize=12;fontFamily=Helvetica;html=1;whiteSpace=wrap;" parent="WIyWlLk6GJQsqaUBKTNV-1" vertex="1">
                    <mxGeometry x="314" y="120" width="190" height="140" as="geometry"/>
                </mxCell>
                <mxCell id="FOTsaMho_FhAhk0ydCsP-39" value="FilterSubstring" style="swimlane;fontStyle=1;align=center;verticalAlign=top;childLayout=stackLayout;horizontal=1;startSize=26;horizontalStack=0;resizeParent=1;resizeParentMax=0;resizeLast=0;collapsible=1;marginBottom=0;whiteSpace=wrap;html=1;" parent="WIyWlLk6GJQsqaUBKTNV-1" vertex="1">
                    <mxGeometry x="329" y="360" width="160" height="130" as="geometry"/>
                </mxCell>
                <mxCell id="FOTsaMho_FhAhk0ydCsP-41" value="" style="line;strokeWidth=1;fillColor=none;align=left;verticalAlign=middle;spacingTop=-1;spacingLeft=3;spacingRight=3;rotatable=0;labelPosition=right;points=[];portConstraint=eastwest;strokeColor=inherit;" parent="FOTsaMho_FhAhk0ydCsP-39" vertex="1">
                    <mxGeometry y="26" width="160" height="8" as="geometry"/>
                </mxCell>
                <mxCell id="FOTsaMho_FhAhk0ydCsP-42" value="&lt;p style=&quot;margin:0px;margin-left:4px;&quot;&gt;+ &lt;code&gt;doFilter&lt;span class=&quot;hljs-params&quot;&gt;(String searchText, MessageList messageList)&lt;/span&gt;: &lt;/code&gt;&lt;code&gt;void&lt;/code&gt;&lt;/p&gt;&lt;p style=&quot;margin:0px;margin-left:4px;&quot;&gt;&lt;br&gt;+&lt;code&gt;&lt;span class=&quot;hljs-title.function&quot;&gt;toString&lt;/span&gt;&lt;span class=&quot;hljs-params&quot;&gt;()&lt;/span&gt;:&lt;/code&gt;&lt;code&gt;String &lt;/code&gt;&lt;/p&gt;" style="text;strokeColor=none;fillColor=none;align=left;verticalAlign=top;spacingLeft=4;spacingRight=4;overflow=hidden;rotatable=0;points=[[0,0.5],[1,0.5]];portConstraint=eastwest;whiteSpace=wrap;html=1;" parent="FOTsaMho_FhAhk0ydCsP-39" vertex="1">
                    <mxGeometry y="34" width="160" height="96" as="geometry"/>
                </mxCell>
                <mxCell id="FOTsaMho_FhAhk0ydCsP-43" value="FilterRegexp" style="swimlane;fontStyle=1;align=center;verticalAlign=top;childLayout=stackLayout;horizontal=1;startSize=26;horizontalStack=0;resizeParent=1;resizeParentMax=0;resizeLast=0;collapsible=1;marginBottom=0;whiteSpace=wrap;html=1;" parent="WIyWlLk6GJQsqaUBKTNV-1" vertex="1">
                    <mxGeometry x="130" y="360" width="160" height="130" as="geometry"/>
                </mxCell>
                <mxCell id="FOTsaMho_FhAhk0ydCsP-44" value="" style="line;strokeWidth=1;fillColor=none;align=left;verticalAlign=middle;spacingTop=-1;spacingLeft=3;spacingRight=3;rotatable=0;labelPosition=right;points=[];portConstraint=eastwest;strokeColor=inherit;" parent="FOTsaMho_FhAhk0ydCsP-43" vertex="1">
                    <mxGeometry y="26" width="160" height="8" as="geometry"/>
                </mxCell>
                <mxCell id="FOTsaMho_FhAhk0ydCsP-45" value="&lt;p style=&quot;margin:0px;margin-left:4px;&quot;&gt;+ &lt;code&gt;doFilter&lt;span class=&quot;hljs-params&quot;&gt;(String searchText, MessageList messageList)&lt;/span&gt;: &lt;/code&gt;&lt;code&gt;void&lt;/code&gt;&lt;/p&gt;&lt;p style=&quot;margin:0px;margin-left:4px;&quot;&gt;&lt;br&gt;+&lt;code&gt;&lt;span class=&quot;hljs-title.function&quot;&gt;toString&lt;/span&gt;&lt;span class=&quot;hljs-params&quot;&gt;()&lt;/span&gt;:&lt;/code&gt;&lt;code&gt;String &lt;/code&gt;&lt;/p&gt;" style="text;strokeColor=none;fillColor=none;align=left;verticalAlign=top;spacingLeft=4;spacingRight=4;overflow=hidden;rotatable=0;points=[[0,0.5],[1,0.5]];portConstraint=eastwest;whiteSpace=wrap;html=1;" parent="FOTsaMho_FhAhk0ydCsP-43" vertex="1">
                    <mxGeometry y="34" width="160" height="96" as="geometry"/>
                </mxCell>
                <mxCell id="FOTsaMho_FhAhk0ydCsP-46" value="FilterCompleteWord" style="swimlane;fontStyle=1;align=center;verticalAlign=top;childLayout=stackLayout;horizontal=1;startSize=26;horizontalStack=0;resizeParent=1;resizeParentMax=0;resizeLast=0;collapsible=1;marginBottom=0;whiteSpace=wrap;html=1;" parent="WIyWlLk6GJQsqaUBKTNV-1" vertex="1">
                    <mxGeometry x="540" y="360" width="160" height="130" as="geometry"/>
                </mxCell>
                <mxCell id="FOTsaMho_FhAhk0ydCsP-47" value="" style="line;strokeWidth=1;fillColor=none;align=left;verticalAlign=middle;spacingTop=-1;spacingLeft=3;spacingRight=3;rotatable=0;labelPosition=right;points=[];portConstraint=eastwest;strokeColor=inherit;" parent="FOTsaMho_FhAhk0ydCsP-46" vertex="1">
                    <mxGeometry y="26" width="160" height="8" as="geometry"/>
                </mxCell>
                <mxCell id="FOTsaMho_FhAhk0ydCsP-48" value="&lt;p style=&quot;margin:0px;margin-left:4px;&quot;&gt;+ &lt;code&gt;doFilter&lt;span class=&quot;hljs-params&quot;&gt;(String searchText, MessageList messageList)&lt;/span&gt;: &lt;/code&gt;&lt;code&gt;void&lt;/code&gt;&lt;/p&gt;&lt;p style=&quot;margin:0px;margin-left:4px;&quot;&gt;&lt;br&gt;+&lt;code&gt;&lt;span class=&quot;hljs-title.function&quot;&gt;toString&lt;/span&gt;&lt;span class=&quot;hljs-params&quot;&gt;()&lt;/span&gt;:&lt;/code&gt;&lt;code&gt;String &lt;/code&gt;&lt;/p&gt;" style="text;strokeColor=none;fillColor=none;align=left;verticalAlign=top;spacingLeft=4;spacingRight=4;overflow=hidden;rotatable=0;points=[[0,0.5],[1,0.5]];portConstraint=eastwest;whiteSpace=wrap;html=1;" parent="FOTsaMho_FhAhk0ydCsP-46" vertex="1">
                    <mxGeometry y="34" width="160" height="96" as="geometry"/>
                </mxCell>
                <mxCell id="FOTsaMho_FhAhk0ydCsP-49" value="&lt;p style=&quot;margin:0px;margin-top:4px;text-align:center;&quot;&gt;&lt;b&gt;Controller&lt;/b&gt;&lt;/p&gt;&lt;hr size=&quot;1&quot;&gt;&lt;hr size=&quot;1&quot;&gt;&lt;p style=&quot;margin:0px;margin-left:4px;&quot;&gt;+&amp;nbsp;&lt;code&gt;&lt;span class=&quot;hljs-title.function&quot;&gt;filterMessage&lt;/span&gt;&lt;span class=&quot;hljs-params&quot;&gt;&lt;span class=&quot;hljs-params&quot;&gt;&lt;/span&gt;&lt;/span&gt;&lt;/code&gt;(String searchText, Filter filter):void&lt;/p&gt;" style="verticalAlign=top;align=left;overflow=fill;fontSize=12;fontFamily=Helvetica;html=1;whiteSpace=wrap;" parent="WIyWlLk6GJQsqaUBKTNV-1" vertex="1">
                    <mxGeometry x="30" y="120" width="190" height="90" as="geometry"/>
                </mxCell>
                <mxCell id="FOTsaMho_FhAhk0ydCsP-50" value="1" style="endArrow=open;html=1;endSize=12;startArrow=diamondThin;startSize=14;startFill=1;edgeStyle=orthogonalEdgeStyle;align=left;verticalAlign=bottom;rounded=0;" parent="WIyWlLk6GJQsqaUBKTNV-1" edge="1">
                    <mxGeometry x="-1" y="3" relative="1" as="geometry">
                        <mxPoint x="220" y="164.5" as="sourcePoint"/>
                        <mxPoint x="310" y="165" as="targetPoint"/>
                    </mxGeometry>
                </mxCell>
            </root>
        </mxGraphModel>
    </diagram>
</mxfile>